<svg id="Layer_2" data-name="Layer 2" xmlns="http://www.w3.org/2000/svg" viewBox="0 0 558.37 557.03"><defs><style>.cls-1{fill:#231f20;}.cls-2{fill:#fbfcfc;}</style></defs><path class="cls-1" d="M413.57,591.25s-9.4,6.76-2.75,17.54c0,0,5.39,8.94,16.51,5.05,0,0,127.72-63.06,151.57-193.3S541.29,167.39,431.23,113.28c0,0-14.29-4.21-19.19,5,0,0-5.8,9.4,1.23,16.28,0,0,164.71,76.82,140,258.42C553.22,393,541.75,529,413.57,591.25Z" transform="translate(-25.63 -112.32)"/><path class="cls-1" d="M370.24,502.4s-10.32,6.3-4.25,17.65c0,0,5.39,10.78,18.46,4.82,0,0,99.52-43.34,99.06-166.7,0,0,4.59-103.65-100-156.39,0,0-12.16-2.17-16.06,4.59,0,0-6.42,11.81,3.56,18,0,0,90.43,41.37,86.79,139.69C457.83,364.06,460.12,456.08,370.24,502.4Z" transform="translate(-25.63 -112.32)"/><path class="cls-2" d="M196.06,136.38s9.4-6.77,2.75-17.54c0,0-5.39-9-16.51-5,0,0-127.72,63.06-151.56,193.3s37.6,253.15,147.67,307.26c0,0,14.29,4.21,19.18-5,0,0,5.81-9.4-1.22-16.28,0,0-164.72-76.82-139.95-258.42C56.42,334.61,67.88,198.63,196.06,136.38Z" transform="translate(-25.63 -112.32)"/><path class="cls-2" d="M239.4,225.23s10.32-6.3,4.24-17.65c0,0-5.39-10.78-18.46-4.82,0,0-99.51,43.34-99.05,166.7,0,0-4.59,103.64,100,156.38,0,0,12.15,2.18,16.05-4.58,0,0,6.42-11.81-3.55-18,0,0-90.43-41.37-86.79-139.69C151.81,363.57,149.51,271.55,239.4,225.23Z" transform="translate(-25.63 -112.32)"/><path class="cls-1" d="M196.06,591.74s9.4,6.76,2.75,17.54c0,0-5.39,8.94-16.51,5,0,0-127.72-63.05-151.56-193.3s37.6-253.14,147.67-307.26c0,0,14.29-4.2,19.18,5,0,0,5.81,9.4-1.22,16.28,0,0-164.72,76.81-139.95,258.42C56.42,393.51,67.88,529.48,196.06,591.74Z" transform="translate(-25.63 -112.32)"/><path class="cls-1" d="M239.4,502.88s10.32,6.31,4.24,17.66c0,0-5.39,10.78-18.46,4.81,0,0-99.51-43.33-99.05-166.7,0,0-4.59-103.64,100-156.38,0,0,12.15-2.18,16.05,4.59,0,0,6.42,11.81-3.55,18,0,0-90.43,41.36-86.79,139.68C151.81,364.54,149.51,456.56,239.4,502.88Z" transform="translate(-25.63 -112.32)"/><path class="cls-1" d="M305.42,300.18c-36,0-65.12,28.89-65.12,64.51s29.16,64.51,65.12,64.51,65.12-28.88,65.12-64.51S341.39,300.18,305.42,300.18Zm-.08,103.65a38.45,38.45,0,1,1,38.45-38.45A38.44,38.44,0,0,1,305.34,403.83Z" transform="translate(-25.63 -112.32)"/><path class="cls-1" d="M370.92,652.85,319.79,423.32l-25.91-8.71-54.8,238.24c-1.84,15.82,12.15,16.51,12.15,16.51H358.77C375.51,666.38,370.92,652.85,370.92,652.85Zm-103.64-9.63L305.2,478.35l37.06,164.87Z" transform="translate(-25.63 -112.32)"/></svg>