<svg id="Layer_1" data-name="Layer 1" xmlns="http://www.w3.org/2000/svg" viewBox="0 0 487.68 303.4"><defs><style>.cls-1{fill:#fff;}.cls-2{fill:#050606;}</style></defs><path class="cls-1" d="M535.6,440.24A77.34,77.34,0,0,1,527,474.17c-9.06,17.66-27.64,36.69-65.7,42.2H134.79A128,128,0,0,1,96.5,502C77.58,490.91,59.12,472.11,61,441.16s17.43-50.11,33.6-61.28,32.9-14.39,37-13.48c0,0-.46-18.45,9.29-39.89s29.69-45.86,70.5-57.79c0,0,19.27-6,44.78-3.26s57.26,14,82.26,48.66c0,0,8.37-6.07,22.35-9.68s33.6-4.76,56.07,5.1A92.75,92.75,0,0,1,438.9,323c11.29,9.23,23.1,23.45,25.16,43.39a85.11,85.11,0,0,1,33.71,10.44C515,386.47,532.85,404.93,535.6,440.24Zm-28,10.09c2.29-33.25-15.36-48.19-33.59-54.82s-37-4.95-37-4.95c3.43-22.54-5.05-37.07-14.39-45.95a56.65,56.65,0,0,0-19.55-12.14c-22.7-9.4-41.39-3.44-54.4,4.87a77.44,77.44,0,0,0-20.35,19c-10.78-37.83-36.46-53.8-59.45-60.32a115.25,115.25,0,0,0-43.28-3.57c-41.73,7.95-57.44,32.48-62.71,55a101.77,101.77,0,0,0-.12,43.11c-37.68-2-56,10.63-64.87,23.73A48.94,48.94,0,0,0,89.54,441c1.22,24,15.29,36.31,29,42.61a77.2,77.2,0,0,0,27.22,6.62H451c21.79.34,35.95-9.63,44.66-19.7A64.91,64.91,0,0,0,507.63,450.33Z" transform="translate(-60.83 -212.97)"/><path class="cls-1" d="M296.14,392.28a34.1,34.1,0,1,0,33.72,34.1A33.92,33.92,0,0,0,296.14,392.28Zm0,48.36a14.2,14.2,0,1,1,14.2-14.2A14.2,14.2,0,0,1,296.11,440.64Z" transform="translate(-60.83 -212.97)"/><path class="cls-1" d="M376.42,385.3H339.64s-10.94.85-10.77,13.77c0,0,.17,12.32,16.93,11.2v42.25s2.57,9.58,12,10.18S371,452.78,371,452.78V410.27s15.65,2.48,16.93-12.23C387.88,398,387.28,386,376.42,385.3Z" transform="translate(-60.83 -212.97)"/><path class="cls-1" d="M241.06,385.16c-11.61,0-12.57,11.06-12.57,11.06v55.19s.45,10.67,12.48,11.35c0,0,10.15.23,12.66-11.06V396.5S252.66,385.1,241.06,385.16Z" transform="translate(-60.83 -212.97)"/><path class="cls-2" d="M265.69,552.62" transform="translate(-60.83 -212.97)"/><path class="cls-2" d="M265.69,510.43" transform="translate(-60.83 -212.97)"/><path class="cls-1" d="M419.84,291.58s38.4,1.63,49.83,49.42h18s-3.88-61.47-67.81-68.83Z" transform="translate(-60.83 -212.97)"/><path class="cls-1" d="M420.91,262.68s66,1.33,78,78.32h19.6s-7.5-92.41-97.57-97.32Z" transform="translate(-60.83 -212.97)"/><path class="cls-1" d="M419.84,231s98,4.39,109.88,109h18.79s-3.27-114.78-128.67-127Z" transform="translate(-60.83 -212.97)"/></svg>