<svg width="20" height="15" viewBox="0 0 20 15" fill="none" xmlns="http://www.w3.org/2000/svg">
<path d="M0.952381 0H16.1905C16.4431 0 16.6853 0.112883 16.8639 0.313814C17.0425 0.514746 17.1429 0.787268 17.1429 1.07143V13.9286C17.1429 14.2127 17.0425 14.4853 16.8639 14.6862C16.6853 14.8871 16.4431 15 16.1905 15H0.952381C0.699794 15 0.457552 14.8871 0.278946 14.6862C0.10034 14.4853 0 14.2127 0 13.9286V1.07143C0 0.787268 0.10034 0.514746 0.278946 0.313814C0.457552 0.112883 0.699794 0 0.952381 0ZM18.0952 4.28571H20V10.7143H18.0952V4.28571Z" fill="#FFB429"/>
</svg>
