<svg id="Layer_2" data-name="Layer 2" xmlns="http://www.w3.org/2000/svg" viewBox="0 0 476.46 477.26"><defs><style>.cls-1{fill:#0FA46D;}</style></defs><path class="cls-1" d="M85.45,618,273.7,429.74l53.89,53.88L245,566.17,213.7,572,212,590.78s1.83,18.35-15.9,18.5l-21.71,2.6-2,18.8s-1.23,9.48-10.09,17.73L138,672.57,87.28,679s-9.17.46-8.14-11S85.45,618,85.45,618Z" transform="translate(-79.06 -201.73)"/><path class="cls-1" d="M280.2,372.34l104.25,104-11.31,11.92s-8.56,5.81-19.87-1.53l-84.69-83.77s-6.73-12.23,0-18Z" transform="translate(-79.06 -201.73)"/><path class="cls-1" d="M542.75,310.2l-95.7-95.7a43.92,43.92,0,0,0-61.91,0l-89.58,89.58a43.92,43.92,0,0,0,0,61.91l95.69,95.7a43.93,43.93,0,0,0,61.92,0l89.58-89.58A43.92,43.92,0,0,0,542.75,310.2ZM501.09,360h0a27.32,27.32,0,0,1-38.52,0l-65.43-65.43A27.24,27.24,0,1,1,435.66,256l65.43,65.42A27.34,27.34,0,0,1,501.09,360Z" transform="translate(-79.06 -201.73)"/></svg>