<svg width="22" height="22" viewBox="0 0 22 22" fill="none" xmlns="http://www.w3.org/2000/svg">
<path d="M12.3715 0C10.5383 0 8.99224 1.46888 8.99224 3.34855C8.99224 4.29799 9.387 5.14234 10.0137 5.74574L10.4059 4.88697C10.0413 4.46444 9.82542 3.92532 9.82542 3.34855C9.82542 2.04158 10.9322 0.92729 12.3714 0.92729C13.8106 0.92729 14.9174 2.04158 14.9174 3.34855C14.9174 4.24508 14.3965 5.05095 13.6048 5.46864L13.2584 6.57912C13.3459 6.55556 13.4326 6.52841 13.5183 6.49773L13.9422 7.32265C13.4642 7.69681 13.0016 8.16061 12.5056 8.7379L16.2713 17.9795C18.5981 18.0989 20.8432 16.7258 22 14.4759L17.0085 5.98411C16.075 6.19156 15.324 6.45054 14.6534 6.83917L14.279 6.11053C15.1611 5.51217 15.7507 4.50889 15.7507 3.3486C15.7507 1.46893 14.2047 5.16843e-05 12.3715 5.16843e-05V0ZM6.69317 0.306366C6.57003 0.307912 6.4407 0.330579 6.3158 0.37581C6.03019 0.479048 5.78855 0.69181 5.68347 0.921366L5.67014 0.95073L2.66569 5.70551C2.56686 5.93486 2.55543 6.26946 2.64454 6.57974C2.73573 6.89692 2.92437 7.16213 3.1168 7.27119L9.76793 11.0401C9.95642 11.147 10.2581 11.164 10.5386 11.0621C10.8138 10.9622 11.0476 10.7589 11.159 10.5216L12.3329 6.69601L12.3399 6.69622L12.6328 5.75708C12.6288 5.75749 12.6247 5.75759 12.6207 5.75801L12.8478 5.01798L12.8612 4.98872C12.9663 4.75916 12.9788 4.41586 12.8867 4.09841C12.7945 3.78097 12.6043 3.51345 12.4037 3.39975L10.9188 2.55834C10.6159 2.97964 10.523 3.58186 10.9027 4.14864L11.0004 4.3306L11.4767 4.60878L11.0945 5.44407L11.0877 5.44046L10.7119 6.26317L10.7182 6.26652L10.4264 6.90408L5.72375 4.23926L6.58503 2.35696L6.77399 1.94381L8.20224 2.75323C8.27427 2.24785 8.43008 1.76164 8.68065 1.28996L7.11631 0.403629C6.99993 0.337688 6.85148 0.30446 6.69317 0.306366ZM16.7812 7.07455L17.896 9.33199L14.5693 11.3664L13.6552 9.51538L13.4546 9.10908L16.7812 7.07455ZM16.4523 8.33381L14.5862 9.4751L14.8983 10.1072L16.7643 8.96591L16.4523 8.33381ZM4.44983 9.06719L3.48374 11.179L6.70131 13.0023L7.66754 10.8905L4.44983 9.06719ZM18.2081 9.96409L19.3227 12.2214L15.9961 14.2557L15.0821 12.4048L14.8815 11.9985L18.2081 9.96399L18.2081 9.96409ZM17.8791 11.2232L16.013 12.3645L16.3251 12.9966L18.1913 11.8553L17.8791 11.2232ZM3.76565 12.3793H3.76556L0 20.6093L0.283438 21.5793L3.86004 13.7624L4.60245 14.1832L1.02594 22L2.06169 21.6252L2.66199 21.408L2.3386 20.2975L3.33367 19.9384L3.00982 18.8304L4.00599 18.4699L3.75741 17.6197L5.6632 13.4545L3.76565 12.3793Z" fill="#008000"/>
</svg>
