<svg width="20" height="20" viewBox="0 0 20 20" fill="none" xmlns="http://www.w3.org/2000/svg">
<path d="M10 17.5C10.9849 17.5 11.9602 17.306 12.8701 16.9291C13.7801 16.5522 14.6069 15.9997 15.3033 15.3033C15.9997 14.6069 16.5522 13.7801 16.9291 12.8701C17.306 11.9602 17.5 10.9849 17.5 10C17.5 9.01509 17.306 8.03982 16.9291 7.12987C16.5522 6.21993 15.9997 5.39314 15.3033 4.6967C14.6069 4.00026 13.7801 3.44781 12.8701 3.0709C11.9602 2.69399 10.9849 2.5 10 2.5C8.01088 2.5 6.10322 3.29018 4.6967 4.6967C3.29018 6.10322 2.5 8.01088 2.5 10C2.5 11.9891 3.29018 13.8968 4.6967 15.3033C6.10322 16.7098 8.01088 17.5 10 17.5ZM10 18.75C7.67936 18.75 5.45376 17.8281 3.81282 16.1872C2.17187 14.5462 1.25 12.3206 1.25 10C1.25 7.67936 2.17187 5.45376 3.81282 3.81282C5.45376 2.17187 7.67936 1.25 10 1.25C12.3206 1.25 14.5462 2.17187 16.1872 3.81282C17.8281 5.45376 18.75 7.67936 18.75 10C18.75 12.3206 17.8281 14.5462 16.1872 16.1872C14.5462 17.8281 12.3206 18.75 10 18.75Z" fill="gray"/>
<path d="M3.75 10C3.75 8.3424 4.40848 6.75269 5.58058 5.58058C6.75269 4.40848 8.3424 3.75 10 3.75C11.6576 3.75 13.2473 4.40848 14.4194 5.58058C15.5915 6.75269 16.25 8.3424 16.25 10C16.25 10.1658 16.1842 10.3247 16.0669 10.4419C15.9497 10.5592 15.7908 10.625 15.625 10.625C15.4592 10.625 15.3003 10.5592 15.1831 10.4419C15.0658 10.3247 15 10.1658 15 10C15 8.67392 14.4732 7.40215 13.5355 6.46447C12.5979 5.52678 11.3261 5 10 5C8.67392 5 7.40215 5.52678 6.46447 6.46447C5.52678 7.40215 5 8.67392 5 10C5 10.1658 4.93415 10.3247 4.81694 10.4419C4.69973 10.5592 4.54076 10.625 4.375 10.625C4.20924 10.625 4.05027 10.5592 3.93306 10.4419C3.81585 10.3247 3.75 10.1658 3.75 10Z" fill="gray"/>
<path d="M11.1422 12.2629C11.493 12.5323 11.7372 12.9171 11.8317 13.3491C11.9262 13.7812 11.8649 14.2328 11.6587 14.624C11.4525 15.0153 11.1146 15.3211 10.7047 15.4873C10.2948 15.6535 9.83941 15.6695 9.4189 15.5325C8.99839 15.3954 8.63987 15.1141 8.40671 14.7382C8.17354 14.3624 8.08075 13.9162 8.14472 13.4786C8.20869 13.0409 8.42531 12.64 8.7563 12.3466C9.08729 12.0533 9.51133 11.8863 9.95348 11.8754L11.1447 8.20786C11.1694 8.12899 11.2095 8.05579 11.2627 7.99251C11.3158 7.92923 11.381 7.87712 11.4544 7.8392C11.5279 7.80128 11.6081 7.7783 11.6905 7.77159C11.7729 7.76489 11.8557 7.77458 11.9343 7.80012C12.0129 7.82566 12.0857 7.86654 12.1484 7.92038C12.2111 7.97423 12.2625 8.03997 12.2996 8.11382C12.3367 8.18766 12.3588 8.26813 12.3647 8.35057C12.3705 8.43302 12.3599 8.51579 12.3335 8.59411L11.1422 12.2616V12.2629ZM9.80723 14.3454C9.88537 14.3708 9.96775 14.3806 10.0497 14.3742C10.1316 14.3678 10.2115 14.3454 10.2847 14.3081C10.358 14.2708 10.4231 14.2195 10.4765 14.1571C10.53 14.0946 10.5705 14.0222 10.596 13.9441C10.6214 13.866 10.6312 13.7836 10.6248 13.7017C10.6184 13.6197 10.596 13.5399 10.5587 13.4666C10.5215 13.3934 10.4701 13.3282 10.4077 13.2748C10.3452 13.2214 10.2729 13.1808 10.1947 13.1554C10.0369 13.104 9.86518 13.1174 9.71726 13.1926C9.56934 13.2679 9.45737 13.3988 9.40598 13.5566C9.3546 13.7144 9.368 13.8862 9.44325 14.0341C9.5185 14.182 9.64943 14.294 9.80723 14.3454Z" fill="gray"/>
</svg>
