<svg width="20" height="18" viewBox="0 0 20 18" fill="none" xmlns="http://www.w3.org/2000/svg">
<path d="M8.61994 13.104C8.96438 13.5034 9.4066 13.6851 9.9466 13.6491C10.4866 13.6131 10.8803 13.3886 11.1277 12.9754L16.9666 3.56143L8.78772 10.2677C8.41587 10.554 8.20883 10.9989 8.16661 11.6023C8.12439 12.2057 8.27587 12.7071 8.62105 13.1066M9.99993 0C11.0214 0 11.951 0.144 12.7888 0.432C13.6266 0.72 14.4618 1.15971 15.2943 1.75114L14.2732 2.55214C13.6192 2.13814 12.9421 1.82357 12.2421 1.60843C11.5421 1.39329 10.7947 1.28571 9.99993 1.28571C7.53699 1.28571 5.43959 2.28771 3.70775 4.29171C1.97591 6.29571 1.11036 8.72229 1.1111 11.5714C1.1111 12.4714 1.21777 13.3607 1.4311 14.2393C1.64443 15.1179 1.94517 15.9429 2.33332 16.7143H17.6665C18.0925 15.9 18.4028 15.0536 18.5977 14.175C18.7925 13.2964 18.8895 12.3857 18.8888 11.4429C18.8888 10.6714 18.8028 9.85971 18.631 9.00771C18.4599 8.15571 18.1884 7.362 17.8165 6.62657L18.5088 5.44371C19.0495 6.51771 19.4321 7.52743 19.6565 8.47286C19.881 9.41914 19.9954 10.404 19.9999 11.4274C20.0043 12.5331 19.898 13.5651 19.681 14.5234C19.4647 15.4809 19.1276 16.4469 18.6699 17.4214C18.581 17.5929 18.4458 17.7321 18.2643 17.8393C18.0836 17.9464 17.8843 18 17.6665 18H2.33332C2.12962 18 1.94073 17.9421 1.76665 17.8264C1.59332 17.7116 1.4474 17.5436 1.32888 17.3224C0.961475 16.5724 0.648144 15.7264 0.388886 14.7844C0.129629 13.8424 0 12.7714 0 11.5714C0 9.99086 0.259258 8.499 0.777773 7.09586C1.29555 5.69271 2.00295 4.464 2.89998 3.40971C3.79627 2.35543 4.85552 1.52314 6.07774 0.912857C7.30217 0.304286 8.60957 0 9.99993 0Z" fill="green"/>
</svg>
