<svg width="13" height="20" viewBox="0 0 13 20" fill="none" xmlns="http://www.w3.org/2000/svg">
<path fill-rule="evenodd" clip-rule="evenodd" d="M13 14.5C12.9998 15.43 12.721 16.3448 12.1895 17.1589C11.658 17.973 10.8912 18.6597 9.96077 19.1549C9.03039 19.65 7.9668 19.9375 6.86945 19.9903C5.7721 20.0432 4.67683 19.8597 3.68603 19.4571C2.69524 19.0545 1.8413 18.4458 1.20403 17.6881C0.566766 16.9303 0.166997 16.0482 0.0421022 15.1242C-0.0827926 14.2002 0.0712649 13.2645 0.489872 12.4045C0.908478 11.5446 1.57796 10.7885 2.43573 10.207C2.74773 9.996 2.95455 9.686 2.95455 9.347V3C2.95455 2.20435 3.32808 1.44129 3.99299 0.87868C4.65789 0.316071 5.55969 0 6.5 0C7.44031 0 8.34211 0.316071 9.00701 0.87868C9.67192 1.44129 10.0455 2.20435 10.0455 3V9.348C10.0455 9.686 10.2523 9.996 10.5643 10.208C11.325 10.7228 11.939 11.3759 12.3606 12.119C12.7823 12.862 13.0008 13.6758 13 14.5ZM6.5 2.25C6.73508 2.25 6.96053 2.32902 7.12675 2.46967C7.29298 2.61032 7.38636 2.80109 7.38636 3V11.38C7.38636 11.817 7.73736 12.188 8.164 12.434C8.68585 12.735 9.07999 13.1695 9.28864 13.6738C9.49728 14.1782 9.50945 14.7259 9.32335 15.2365C9.13724 15.7472 8.76267 16.1939 8.25456 16.5112C7.74644 16.8286 7.13153 16.9998 6.5 16.9998C5.86847 16.9998 5.25356 16.8286 4.74544 16.5112C4.23733 16.1939 3.86276 15.7472 3.67665 15.2365C3.49055 14.7259 3.50272 14.1782 3.71136 13.6738C3.92001 13.1695 4.31416 12.735 4.836 12.434C5.26145 12.188 5.61364 11.817 5.61364 11.38V3C5.61364 2.80109 5.70702 2.61032 5.87325 2.46967C6.03947 2.32902 6.26492 2.25 6.5 2.25Z" fill="gray"/>
</svg>
