<?xml version="1.0" encoding="UTF-8"?>
<svg id="Layer_2" data-name="Layer 2" xmlns="http://www.w3.org/2000/svg" viewBox="0 0 724.37 596.69">
  <defs>
    <style>
      .cls-1, .cls-2 {
        stroke-width: 0px;
      }

      .cls-1, .cls-3 {
        fill: #07a46d;
      }

      .cls-2 {
        fill: #f7f8f8;
      }

      .cls-3, .cls-4 {
        stroke: #07a46d;
        stroke-miterlimit: 10;
      }

      .cls-4 {
        fill: none;
        stroke-width: 18px;
      }
    </style>
  </defs>
  <g>
    <path class="cls-4" d="M579.14,350.73c-39.44,78.3-121.52,132.63-215.46,132.63-131.86,0-240.36-107.07-240.36-237.18S231.83,9,363.68,9c72.34,0,140.95,32.23,186.56,87.64"/>
    <polygon class="cls-1" points="497.55 380.61 569.35 371.15 626.01 416.26 604.04 246.18 497.55 380.61"/>
  </g>
  <rect class="cls-4" x="260.92" y="101.82" width="203.87" height="327.32" rx="12" ry="12"/>
  <rect class="cls-4" x="315.8" y="47.78" width="92.67" height="54.04" rx="12" ry="12"/>
  <rect class="cls-4" x="286.58" y="351.44" width="153.26" height="7.13" rx="2.29" ry="2.29"/>
  <rect class="cls-4" x="286.58" y="316.51" width="153.26" height="7.13" rx="2.29" ry="2.29"/>
  <rect class="cls-4" x="286.58" y="389.48" width="153.26" height="7.13" rx="2.29" ry="2.29"/>
  <path class="cls-3" d="M369.74,125l-63.68,81.74s-9.74,15.92,5.94,16.39l37.07,4.75-11.41,48.23s-3.56,25.42,18.3,8.79l65.82-78.17s8.79-17.11-9.74-18.06l-34.45-1.9,9.5-54.17s.71-17.58-17.35-7.6Z"/>
  <path class="cls-2" d="M360,167.29l-30.41,40.16,24.71,2.14s15.92.48,14.73,13.54l-4.75,23.05,33.5-41.34-26.37-1.66s-18.77.95-14.49-14.02l3.09-21.86Z"/>
</svg>