<?xml version="1.0" encoding="UTF-8"?>
<svg xmlns="http://www.w3.org/2000/svg" viewBox="0 0 800.35 605.63">
  <defs>
    <style>
      .cls-1 {
        fill: #ff3d31;
      }

      .cls-1, .cls-2 {
        stroke-width: 0px;
      }
    </style>
  </defs>
  <g id="Capa_1" data-name="Capa 1">
    <g>
      <polygon class="cls-2" points="54.95 473.73 54.95 121.76 357.33 121.76 414.36 65.07 0 65.07 0 530.54 198.66 530.54 220.12 473.73 54.95 473.73"/>
      <path class="cls-2" d="M727.36,173.6v-108.53h-213l-19.62,56.71h177.67v351.97h-338.72l-58.47,56.78h452.15v-106.65c22.23,0,72.64,4.12,72.64-37.48v-168.25c0-50.21-53.39-44.55-72.64-44.55Z"/>
      <polygon class="cls-2" points="101.98 168.89 101.98 426.69 101.98 426.79 237.91 426.79 271.67 340.78 154.6 340.88 309.95 168.89 101.98 168.89"/>
      <polygon class="cls-2" points="571.35 223.15 382.14 426.79 629.6 426.69 629.94 168.89 473.58 168.89 453.26 223.15 571.35 223.15"/>
      <polygon class="cls-2" points="416.55 247.43 514.71 0 211.68 316.97 314.93 315.6 187.47 605.63 519.9 246.02 416.55 247.43"/>
    </g>
  </g>
  <g id="Layer_2" data-name="Layer 2">
    <path class="cls-1" d="M0,65.07h414.62l-55.59,55.59H54.95v353.07h165.17l-21.46,56.81H0V65.07Z"/>
    <polygon class="cls-1" points="101.98 168.89 309.95 168.89 154.6 340.88 272.45 340.88 237.91 426.79 101.98 426.79 101.98 168.89"/>
    <polygon class="cls-1" points="416.55 247.43 515.51 0 211.68 316.97 314.93 315.6 188.29 603.77 519.9 246.02 416.55 247.43"/>
    <polygon class="cls-1" points="453.26 223.15 571.35 223.15 382.14 426.79 629.6 426.69 629.94 168.89 473.58 168.89 453.26 223.15"/>
    <path class="cls-1" d="M514.36,65.07h213v108.53s77.84-7.89,72.64,46.45l.25,165.1s5.97,46.52-72.89,38.74v106.65h-452.15l58.47-56.78h339.35V121h-179.54l20.87-55.93Z"/>
  </g>
</svg>