<?xml version="1.0" encoding="iso-8859-1"?>
<!-- Uploaded to: SVG Repo, www.svgrepo.com, Generator: SVG Repo Mixer Tools -->
<!DOCTYPE svg PUBLIC "-//W3C//DTD SVG 1.1//EN" "http://www.w3.org/Graphics/SVG/1.1/DTD/svg11.dtd">
<svg fill="#0FA46D" version="1.1" id="Capa_1" xmlns="http://www.w3.org/2000/svg" xmlns:xlink="http://www.w3.org/1999/xlink" 
	 width="800px" height="800px" viewBox="0 0 598.391 598.391"
	 xml:space="preserve">
<g>
	<g>
		<path d="M462.938,105.729H58.64c-32.059,0-58.14,26.082-58.14,58.14v270.651c0,32.059,26.082,58.141,58.14,58.141h404.297
			c32.059,0,58.14-26.082,58.14-58.141v-20.502h18.674c32.059,0,58.14-26.081,58.14-58.14V242.511
			c0-32.058-26.081-58.14-58.14-58.14h-18.674v-20.502C521.077,131.811,494.996,105.729,462.938,105.729z M478.237,227.211v143.967
			v42.84v20.502c0,8.45-6.85,15.3-15.3,15.3H58.64c-8.45,0-15.3-6.85-15.3-15.3V163.869c0-8.45,6.85-15.3,15.3-15.3h404.297
			c8.45,0,15.3,6.85,15.3,15.3v20.502V227.211z M539.751,227.211c8.45,0,15.3,6.85,15.3,15.3v113.368c0,8.449-6.85,15.3-15.3,15.3
			h-18.674V227.211H539.751z"/>
		<path d="M462.938,493.161H58.64C26.306,493.161,0,466.855,0,434.521V163.869c0-32.334,26.306-58.64,58.64-58.64h404.297
			c32.334,0,58.64,26.306,58.64,58.64v20.002h18.174c32.334,0,58.64,26.306,58.64,58.64v113.368c0,32.334-26.306,58.64-58.64,58.64
			h-18.174v20.002C521.577,466.855,495.271,493.161,462.938,493.161z M58.64,106.229c-31.783,0-57.64,25.857-57.64,57.64v270.651
			c0,31.783,25.857,57.641,57.64,57.641h404.297c31.782,0,57.64-25.857,57.64-57.641v-21.002h19.174
			c31.782,0,57.64-25.857,57.64-57.64V242.511c0-31.783-25.857-57.64-57.64-57.64h-19.174v-21.002
			c0-31.783-25.857-57.64-57.64-57.64H58.64z M462.938,450.32H58.64c-8.712,0-15.8-7.088-15.8-15.8V163.869
			c0-8.712,7.088-15.8,15.8-15.8h404.297c8.712,0,15.8,7.088,15.8,15.8v270.651C478.737,443.232,471.649,450.32,462.938,450.32z
			 M58.64,149.069c-8.161,0-14.8,6.639-14.8,14.8v270.651c0,8.161,6.639,14.8,14.8,14.8h404.297c8.161,0,14.8-6.639,14.8-14.8
			V163.869c0-8.161-6.639-14.8-14.8-14.8H58.64z M539.751,371.679h-19.174V226.711h19.174c8.712,0,15.8,7.088,15.8,15.8v113.368
			C555.551,364.591,548.463,371.679,539.751,371.679z M521.577,370.679h18.174c8.16,0,14.8-6.64,14.8-14.8V242.511
			c0-8.161-6.64-14.8-14.8-14.8h-18.174V370.679z"/>
	</g>
	<g>
		<path d="M278.975,414.019l-15.337-42.84l-51.542-143.967l-15.337-42.84l-3.876-10.827c-1.307-3.65-4.766-6.086-8.643-6.086h-78.17
			h-33.66c-5.07,0-9.18,4.11-9.18,9.18v33.66v177.793v33.66c0,5.07,4.11,9.18,9.18,9.18h33.66h165.923
			c6.352,0,10.784-6.294,8.644-12.274L278.975,414.019z M209.058,371.179l3.186,8.686c1.465,3.994-1.492,8.228-5.746,8.228h-85.129
			c-8.451,0-15.3-6.85-15.3-15.3V225.598c0-8.45,6.849-15.3,15.3-15.3h24.406c2.567,0,4.862,1.603,5.746,4.013l4.731,12.9
			L209.058,371.179z"/>
		<path d="M271.992,431.432H72.409c-5.337,0-9.68-4.343-9.68-9.68V176.639c0-5.338,4.342-9.68,9.68-9.68h111.83
			c4.077,0,7.74,2.579,9.114,6.417l87.753,245.112c1.076,3.006,0.639,6.228-1.2,8.837
			C278.069,429.935,275.184,431.432,271.992,431.432z M72.409,167.958c-4.786,0-8.68,3.894-8.68,8.68v245.113
			c0,4.786,3.894,8.68,8.68,8.68h199.583c2.862,0,5.449-1.342,7.097-3.682c1.648-2.341,2.04-5.229,1.076-7.925l-87.753-245.112
			c-1.232-3.442-4.517-5.754-8.172-5.754H72.409z M206.498,388.592h-85.129c-8.712,0-15.8-7.088-15.8-15.8V225.598
			c0-8.712,7.088-15.8,15.8-15.8h24.406c2.765,0,5.263,1.744,6.215,4.34l60.724,165.554c0.755,2.059,0.468,4.271-0.788,6.069
			C210.67,387.561,208.691,388.592,206.498,388.592z M121.369,210.798c-8.161,0-14.8,6.639-14.8,14.8v147.194
			c0,8.161,6.639,14.8,14.8,14.8h85.129c1.862,0,3.542-0.876,4.608-2.402c1.066-1.526,1.31-3.405,0.669-5.153l-60.724-165.553
			c-0.809-2.204-2.929-3.685-5.277-3.685H121.369z"/>
	</g>
</g>
</svg>