<svg width="25" height="25" viewBox="0 0 25 25" fill="none" xmlns="http://www.w3.org/2000/svg">
<g clip-path="url(#clip0_1692_1949)">
<path d="M4.50956 11.96C2.01898 11.96 0 14.3235 0 17.2385C0 20.1536 4.44421 25.0004 4.44421 25.0004C4.44421 25.0004 9.01864 20.1541 9.01864 17.2385C9.01864 14.323 7.00108 11.96 4.50956 11.96ZM4.49488 18.6494C4.19857 18.6494 3.90893 18.5516 3.66256 18.3683C3.41619 18.185 3.22417 17.9244 3.11078 17.6196C2.99739 17.3148 2.96772 16.9794 3.02553 16.6558C3.08333 16.3322 3.22602 16.035 3.43554 15.8017C3.64505 15.5684 3.912 15.4095 4.20261 15.3452C4.49321 15.2808 4.79444 15.3138 5.06819 15.4401C5.34194 15.5664 5.57591 15.7802 5.74053 16.0545C5.90515 16.3288 5.99301 16.6513 5.99301 16.9813C5.99307 17.2003 5.95437 17.4173 5.8791 17.6197C5.80383 17.8221 5.69348 18.0061 5.55436 18.161C5.41523 18.3159 5.25005 18.4388 5.06826 18.5226C4.88647 18.6064 4.69163 18.6495 4.49488 18.6494Z" fill="#07A46D"/>
<path d="M20.4909 0C18.0004 0 15.9814 2.36303 15.9814 5.27859C15.9814 8.19415 20.4261 13.0399 20.4261 13.0399C20.4261 13.0399 25 8.19362 25 5.27859C25 2.36355 22.9815 0 20.4909 0ZM20.4763 6.68944C20.1799 6.68944 19.8901 6.59158 19.6437 6.40822C19.3972 6.22487 19.2052 5.96425 19.0917 5.65935C18.9783 5.35444 18.9486 5.01892 19.0064 4.69523C19.0643 4.37154 19.207 4.07421 19.4166 3.84084C19.6262 3.60748 19.8932 3.44855 20.1839 3.38417C20.4746 3.31978 20.7759 3.35282 21.0498 3.47912C21.3236 3.60542 21.5576 3.8193 21.7223 4.09371C21.887 4.36812 21.9749 4.69074 21.9749 5.02077C21.9749 5.46333 21.817 5.88776 21.5359 6.2007C21.2549 6.51364 20.8737 6.68944 20.4763 6.68944Z" fill="#EF4337"/>
<path d="M17.5671 11.0332V12.714H13.568C13.568 12.714 11.8199 12.694 11.7763 14.9062C11.7763 14.9062 11.5594 16.6107 13.4918 16.9856H18.0193C18.0193 16.9856 20.9943 17.0699 21.2864 20.8538C21.2864 20.8538 21.3518 24.1179 18.203 24.6862H7.39032V22.9295H18.0955C18.0955 22.9295 19.6803 22.7039 19.6912 20.9023C19.7021 19.1008 18.1168 18.7381 18.1168 18.7381H13.2313C13.2313 18.7381 10.1697 18.2029 10.2346 14.8197C10.2346 14.8197 10.3866 11.2109 13.4918 11.0332H17.5671Z" fill="url(#paint0_linear_1692_1949)"/>
</g>
<defs>
<linearGradient id="paint0_linear_1692_1949" x1="10.4557" y1="27.2844" x2="21.2487" y2="11.8482" gradientUnits="userSpaceOnUse">
<stop stop-color="#07A46D"/>
<stop offset="1"/>
</linearGradient>
<clipPath id="clip0_1692_1949">
<rect width="25" height="25" fill="white"/>
</clipPath>
</defs>
</svg>
